<svg xmlns="http://www.w3.org/2000/svg" width="163" height="160" fill="none"><path d="M89.755 142.966V160h37.287V76.726l-63.52-62.538L.002 76.726V160H72.27V98.162H54.776v44.804H17.218V83.807l46.305-45.596 46.304 45.596v59.159H89.755z" fill="#3B04D9"/><path d="M73.5 81.007c0 5.451-4.467 9.87-9.975 9.87-5.51 0-9.976-4.419-9.976-9.87 0-5.45 4.467-9.87 9.976-9.87 5.508 0 9.975 4.42 9.975 9.87zm78.149-66.873c0 1.065-.242 1.913-.726 2.545-.466.632-.987 1.129-1.564 1.49a8.563 8.563 0 01-2.291.947l5.139 7.5h-2.848l-4.86-7.23h-3.156v7.23h-2.29V8.854h6.591c1.862 0 3.324.533 4.385 1.598 1.08 1.047 1.62 2.274 1.62 3.682zm-10.306-3.06v6.093h4.301c.987 0 1.806-.29 2.458-.867.652-.596.977-1.318.977-2.166 0-.848-.325-1.57-.977-2.166-.652-.596-1.471-.894-2.458-.894h-4.301zm-11.731 6.661c0 2.22.392 4.27 1.174 6.147.782 1.859 1.852 3.465 3.211 4.82 1.36 1.335 2.961 2.382 4.804 3.14 1.844.758 3.836 1.138 5.977 1.138 2.141 0 4.134-.38 5.977-1.138 1.844-.758 3.445-1.805 4.804-3.14 1.359-1.355 2.43-2.961 3.212-4.82.782-1.878 1.173-3.926 1.173-6.147 0-2.22-.391-4.26-1.173-6.12-.782-1.876-1.853-3.483-3.212-4.819-1.359-1.354-2.96-2.41-4.804-3.168-1.843-.758-3.836-1.137-5.977-1.137-2.141 0-4.133.38-5.977 1.137-1.843.758-3.444 1.814-4.804 3.168-1.359 1.336-2.429 2.943-3.211 4.82-.782 1.86-1.174 3.899-1.174 6.12zm32.901 0c0 2.51-.465 4.838-1.396 6.986-.931 2.148-2.197 4.026-3.798 5.632-1.602 1.607-3.482 2.861-5.642 3.764-2.16.902-4.46 1.354-6.899 1.354s-4.738-.452-6.898-1.354a17.352 17.352 0 01-5.614-3.764c-1.602-1.607-2.877-3.484-3.827-5.632-.931-2.148-1.396-4.477-1.396-6.986 0-2.473.465-4.792 1.396-6.958.95-2.167 2.225-4.053 3.827-5.66a17.352 17.352 0 015.614-3.763C140.04.45 142.339 0 144.778 0s4.739.451 6.899 1.354c2.16.902 4.04 2.157 5.642 3.763 1.601 1.607 2.867 3.493 3.798 5.66.931 2.166 1.396 4.485 1.396 6.958z" fill="#3B04D9"/></svg>