<svg xmlns="http://www.w3.org/2000/svg" width="196" height="54" fill="none"><path d="M33.07 47.449v6.276h13.738V23.042L23.404 0 0 23.042v30.683h26.627V30.94h-6.446v16.51H6.343v-21.8l17.061-16.8 17.061 16.8v21.8H33.07z" fill="#fff"/><path d="M27.08 24.62c0 2.009-1.646 3.637-3.676 3.637-2.03 0-3.675-1.628-3.675-3.637 0-2.008 1.645-3.637 3.675-3.637s3.676 1.629 3.676 3.637zm168.704 17.652c-.059-2.806-1.736-4.669-4.451-4.669-1.149 0-2.335.384-3.405 1.273-.836-.926-1.889-1.273-3.055-1.273-1.048 0-2.043.289-2.859.923v-1c-.953.155-1.906.25-2.859.27v9.456h2.859v-4.448c0-1.791.836-2.54 2.081-2.54 1.043 0 1.811.59 1.941 2.038v4.95h2.918v-4.784h.003v-.047c.021-.387 0-.828.037-1.215.33-.617 1.187-.943 1.869-.943 1.317 0 1.845.6 1.917 2.063v4.926h3.007v-4.98h-.003zm-23.487-4.764c-2.777 0-5.029 2.23-5.029 4.977 0 2.748 2.252 4.977 5.029 4.977 2.778 0 5.03-2.229 5.03-4.977-.003-2.748-2.252-4.977-5.03-4.977zm0 7.21a2.245 2.245 0 01-2.256-2.233c0-1.234 1.012-2.232 2.256-2.232 1.245 0 2.256 1.001 2.256 2.232 0 1.232-1.011 2.233-2.256 2.233zm-8.375-.737a2.263 2.263 0 01-1.67.737c-1.245 0-2.257-1.001-2.257-2.233 0-1.235 1.012-2.232 2.257-2.232a2.26 2.26 0 011.67.736l2.05-1.839a5.035 5.035 0 00-3.724-1.638c-2.777 0-5.026 2.229-5.026 4.977s2.249 4.977 5.026 4.977a5.041 5.041 0 003.724-1.639l-2.05-1.846zm-11.374 3.271a2.005 2.005 0 002.016-1.995 2.005 2.005 0 00-2.016-1.995 2.006 2.006 0 00-2.016 1.995c0 1.102.903 1.995 2.016 1.995zm-71.621.207v-4c-1.214.03-2.404.044-3.655.061-1.28.017-2.603.034-3.957.068l-.669.017 8.414-9.934-.984-2.768h-12.72v4l1.313-.03c1.824-.041 3.713-.085 5.791-.269l.744-.068-8.883 10.154 1.045 2.769h13.56zm30.392-.228V23.246a27.424 27.424 0 01-4.399.387v9.275l-.514-.509c-1.07-1.058-2.788-1.598-5.102-1.598-5.065 0-8.209 3.244-8.209 8.468 0 5.004 3.34 8.363 8.315 8.363 2.311 0 3.891-.631 4.972-1.985l.538-.675v2.68a49.382 49.382 0 014.399-.42zm-5.507-5.027c-.829.97-2.101 1.523-3.5 1.523-2.887 0-4.608-1.666-4.608-4.458 0-2.772 1.81-4.563 4.608-4.563 1.364 0 2.51.461 3.315 1.337.734.841 1.121 1.981 1.121 3.294 0 1.136-.315 2.1-.936 2.867zm32.843 5.255v-4c-1.213.03-2.403.044-3.655.061-1.279.017-2.602.034-3.957.068l-.668.017 8.414-9.934-.984-2.768h-12.721v4l1.314-.03c1.823-.041 3.709-.085 5.791-.269l.744-.068-8.884 10.154 1.046 2.769h13.56zM60.368 28.257c1.74 0 3.151-1.396 3.151-3.118s-1.41-3.118-3.15-3.118-3.151 1.396-3.151 3.118 1.41 3.118 3.15 3.118zm2.253 2.683H58.12v16.485h4.502V30.94zm27.676-5.801c0 1.72-1.409 3.118-3.15 3.118-1.74 0-3.152-1.395-3.152-3.118 0-1.723 1.41-3.118 3.151-3.118 1.742 0 3.151 1.395 3.151 3.118zM89.4 30.94h-4.503v16.485H89.4V30.94zm28.694-2.985c1.57 0 2.848-1.265 2.848-2.816 0-1.554-1.278-2.819-2.848-2.819-1.571 0-2.846 1.265-2.846 2.82 0 1.553 1.279 2.815 2.846 2.815zm29.932-2.816c0 1.72-1.409 3.118-3.151 3.118-1.739 0-3.151-1.395-3.151-3.118 0-1.723 1.409-3.118 3.151-3.118 1.742 0 3.151 1.395 3.151 3.118zm-.898 5.801h-4.503v16.485h4.503V30.94z" fill="#fff"/><path d="M89.4 30.94h-4.503v16.485H89.4V30.94zm30.946 0h-4.502v16.485h4.502V30.94zm73.327-7.026c0 .228-.051.41-.155.545-.1.135-.211.241-.335.319a1.83 1.83 0 01-.49.203l1.1 1.605h-.61l-1.041-1.547h-.675v1.547h-.491v-3.803h1.412c.398 0 .711.114.939.342.231.224.346.487.346.789zm-2.206-.655v1.304h.921a.765.765 0 00.526-.185.607.607 0 00.209-.464.607.607 0 00-.209-.464.751.751 0 00-.526-.191h-.921zm-2.512 1.426c0 .475.083.914.251 1.316.167.398.397.742.688 1.032.291.286.634.51 1.028.673.395.162.822.243 1.28.243.459 0 .885-.081 1.28-.243a3.171 3.171 0 001.029-.673c.291-.29.52-.634.687-1.032a3.38 3.38 0 00.252-1.316c0-.476-.084-.912-.252-1.31a3.09 3.09 0 00-1.716-1.71 3.33 3.33 0 00-1.28-.244c-.458 0-.885.08-1.28.243a3.128 3.128 0 00-1.716 1.71 3.336 3.336 0 00-.251 1.31zm7.045 0c0 .537-.1 1.036-.299 1.496-.2.46-.471.862-.814 1.206a3.788 3.788 0 01-2.685 1.096 3.795 3.795 0 01-1.477-.29 3.714 3.714 0 01-1.202-.806 3.948 3.948 0 01-.819-1.206 3.71 3.71 0 01-.299-1.496c0-.53.099-1.026.299-1.49.203-.464.476-.868.819-1.212a3.713 3.713 0 011.202-.806 3.8 3.8 0 011.477-.29 3.788 3.788 0 012.685 1.096c.343.344.614.748.814 1.212.199.464.299.96.299 1.49z" fill="#fff"/></svg>