<?xml version="1.0" standalone="no"?>
<!DOCTYPE svg PUBLIC "-//W3C//DTD SVG 20010904//EN"
 "http://www.w3.org/TR/2001/REC-SVG-20010904/DTD/svg10.dtd">
<svg version="1.0" xmlns="http://www.w3.org/2000/svg"
 width="584.000000pt" height="584.000000pt" viewBox="0 0 584.000000 584.000000"
 preserveAspectRatio="xMidYMid meet">
<metadata>
Created by potrace 1.14, written by Peter Selinger 2001-2017
</metadata>
<g transform="translate(0.000000,584.000000) scale(0.100000,-0.100000)"
fill="#000000" stroke="none">
<path d="M2829 5762 c-37 -37 -246 -243 -465 -459 -220 -215 -516 -507 -659
-648 -143 -141 -447 -440 -675 -664 -228 -225 -472 -465 -543 -534 l-127 -126
0 -1665 0 -1666 1445 0 1445 0 0 1238 0 1237 -337 -2 c-186 0 -344 -2 -350 -2
-10 -1 -13 -187 -13 -895 l0 -894 -750 0 -750 0 0 1184 0 1183 52 51 c29 29
256 251 503 495 248 244 561 553 697 687 136 134 327 321 423 417 l177 174
111 -111 c62 -61 211 -209 332 -328 212 -208 888 -874 1239 -1220 l169 -167 1
-1181 0 -1181 -395 -2 c-217 -1 -397 -2 -401 -2 -5 -1 -8 -154 -8 -341 l0
-340 745 0 c702 0 745 1 746 18 5 89 3 311 -4 325 -4 9 -4 17 0 17 4 0 8 52 8
115 0 63 -4 115 -8 115 -5 0 -5 5 -1 11 9 16 11 450 1 456 -4 2 -4 9 -1 15 9
14 10 611 1 625 -4 6 -4 13 0 17 8 8 8 609 0 623 -4 6 -4 13 0 17 8 8 8 609 0
623 -4 6 -3 13 0 17 5 5 8 265 4 330 -1 5 -84 90 -185 190 -102 100 -388 381
-636 626 -649 639 -1675 1649 -1705 1678 -8 6 -15 12 -17 12 -2 0 -33 -30 -69
-68z"/>
</g>
</svg>
