<svg xmlns="http://www.w3.org/2000/svg" width="53" height="53" fill="none"><g filter="url(#filter0_d)" fill="#FFD600"><path d="M41.35 13.25h-4.62c.825-.825 1.32-1.98 1.32-3.3C38.05 7.145 35.905 5 33.1 5c-1.65 0-4.62 1.485-6.6 3.465C24.52 6.485 21.55 5 19.9 5c-2.805 0-4.95 2.145-4.95 4.95 0 1.32.495 2.475 1.32 3.3h-4.62c-.99 0-1.65.66-1.65 1.65v4.62c0 .165.165.33.33.33h13.86c.33 0 .66-.33.66-.66v-5.28c0-.33.33-.66.66-.66h1.98c.33 0 .66.33.66.66v5.28c0 .33.33.66.66.66h13.86c.165 0 .33-.165.33-.33V14.9c0-.99-.66-1.65-1.65-1.65zM19.9 11.6c-.99 0-1.65-.66-1.65-1.65 0-.99.66-1.65 1.65-1.65.99 0 3.96 1.98 4.785 2.97-.495.165-4.785.33-4.785.33zm13.2 0s-4.29-.165-4.785-.33c.99-1.155 3.795-2.97 4.785-2.97.99 0 1.65.66 1.65 1.65 0 .99-.66 1.65-1.65 1.65zm-8.91 11.55H11.98a.355.355 0 00-.33.33v12.87c0 .99.66 1.65 1.65 1.65h10.89c.33 0 .66-.33.66-.66V23.81c0-.33-.33-.66-.66-.66zm16.83 0H28.81c-.33 0-.66.33-.66.66v13.53c0 .33.33.66.66.66H39.7c.99 0 1.65-.66 1.65-1.65V23.48a.355.355 0 00-.33-.33z"/></g><defs><filter id="filter0_d" x="0" y="0" width="53" height="53" filterUnits="userSpaceOnUse" color-interpolation-filters="sRGB"><feFlood flood-opacity="0" result="BackgroundImageFix"/><feColorMatrix in="SourceAlpha" values="0 0 0 0 0 0 0 0 0 0 0 0 0 0 0 0 0 0 127 0"/><feOffset dy="5"/><feGaussianBlur stdDeviation="5"/><feColorMatrix values="0 0 0 0 1 0 0 0 0 0.839216 0 0 0 0 0 0 0 0 0.15 0"/><feBlend in2="BackgroundImageFix" result="effect1_dropShadow"/><feBlend in="SourceGraphic" in2="effect1_dropShadow" result="shape"/></filter></defs></svg>