<svg xmlns="http://www.w3.org/2000/svg" width="144" height="144" fill="none"><circle cx="71.78" cy="71.78" r="71.78" fill="#FFD600"/><path d="M41.041 84.302c0 .677.117 1.302.352 1.875.234.573.54 1.07.917 1.494.385.417.82.742 1.31.976a3.523 3.523 0 001.523.352c.481 0 .914-.068 1.298-.205a3.375 3.375 0 001.026-.586 3.25 3.25 0 00.723-.86 4.25 4.25 0 00.449-1.044h2.002a6.25 6.25 0 01-.703 1.699 5.605 5.605 0 01-1.192 1.406 5.595 5.595 0 01-1.611.947 5.613 5.613 0 01-1.992.342 5.56 5.56 0 01-2.295-.488 5.96 5.96 0 01-1.905-1.357 6.72 6.72 0 01-1.308-2.032 6.437 6.437 0 01-.488-2.52c0-.891.162-1.728.488-2.509a6.688 6.688 0 011.308-2.041 5.959 5.959 0 011.905-1.357 5.567 5.567 0 012.295-.489c.69 0 1.334.117 1.933.352a5.069 5.069 0 011.592.947c.462.397.853.863 1.172 1.397.325.533.56 1.1.703 1.699h-2.002a4.259 4.259 0 00-.45-1.045 3.296 3.296 0 00-.722-.86 3.172 3.172 0 00-.986-.576 3.42 3.42 0 00-1.24-.215c-.521 0-1.03.118-1.524.352a4.102 4.102 0 00-1.309.977 4.982 4.982 0 00-.917 1.494 4.905 4.905 0 00-.352 1.875zM57.838 90.6l-3.506-4.297V90.6h-1.797v-9.004h1.797v3.906l3.105-3.906h2.1l-3.496 4.199 3.994 4.805h-2.197zm6.69-9.102c.52 0 .995.085 1.425.254.436.163.807.387 1.113.674a3.089 3.089 0 01.967 2.275V90.6h-1.299l-.4-.899a2.803 2.803 0 01-.625.498c-.215.13-.485.248-.81.352a4.113 4.113 0 01-1.172.146c-1.003 0-1.771-.247-2.305-.742-.527-.501-.791-1.152-.791-1.953 0-.456.084-.866.254-1.23.175-.372.472-.684.888-.938.424-.26.993-.462 1.71-.605.722-.15 1.637-.225 2.744-.225v-.303c0-.456-.144-.82-.43-1.094-.287-.273-.71-.41-1.27-.41-.599 0-1.035.108-1.308.323-.274.214-.436.475-.489.78h-1.796c.052-.8.387-1.467 1.006-2.001.618-.534 1.48-.801 2.587-.801zm-.694 7.598c.762 0 1.35-.196 1.768-.586.416-.39.625-.866.625-1.426v-.488c-.801 0-1.449.039-1.944.117-.488.072-.872.172-1.152.303-.28.123-.469.28-.566.468a1.355 1.355 0 00-.137.616c0 .254.12.485.361.693.24.202.59.303 1.045.303zm13.594-7.5V90.6H75.63v-3.204a5.12 5.12 0 01-.723.303c-.228.078-.495.15-.8.215a5.188 5.188 0 01-.977.088 3.63 3.63 0 01-1.309-.225 2.82 2.82 0 01-1.006-.674 3.151 3.151 0 01-.654-1.035 3.764 3.764 0 01-.234-1.367v-3.105h1.806v3.105c0 .508.16.918.479 1.23.319.313.758.47 1.318.47.306 0 .586-.03.84-.088a5.15 5.15 0 00.664-.215c.228-.079.427-.18.596-.303v-4.2h1.797zm5.908-.098c.52 0 .996.085 1.426.254.436.163.807.387 1.113.674a3.089 3.089 0 01.967 2.275V90.6h-1.299l-.4-.899a2.803 2.803 0 01-.625.498c-.215.13-.485.248-.811.352a4.113 4.113 0 01-1.172.146c-1.002 0-1.77-.247-2.304-.742-.528-.501-.791-1.152-.791-1.953 0-.456.084-.866.253-1.23.176-.372.472-.684.889-.938.423-.26.993-.462 1.709-.605.723-.15 1.637-.225 2.744-.225v-.303c0-.456-.143-.82-.43-1.094-.286-.273-.71-.41-1.27-.41-.598 0-1.034.108-1.308.323-.273.214-.436.475-.488.78h-1.797c.052-.8.388-1.467 1.006-2.001.618-.534 1.481-.801 2.588-.801zm-.693 7.598c.761 0 1.35-.196 1.767-.586a1.88 1.88 0 00.625-1.426v-.488c-.8 0-1.448.039-1.943.117-.489.072-.873.172-1.153.303-.28.123-.468.28-.566.468a1.357 1.357 0 00-.137.616c0 .254.12.485.362.693.24.202.589.303 1.045.303zm5.4-7.5h7.392v1.699h-2.792V90.6h-1.807v-7.305h-2.793v-1.7zm12.9 3.008c.456 0 .873.078 1.25.234a2.78 2.78 0 011.621 1.572c.157.365.235.762.235 1.192 0 .43-.078.826-.235 1.19a2.781 2.781 0 01-.634.948 3.037 3.037 0 01-.987.635 3.36 3.36 0 01-1.25.225h-3.994v-9.004h1.797v3.008h2.197zm0 4.296c.345 0 .648-.13.909-.39.266-.26.4-.563.4-.908 0-.346-.13-.648-.391-.909-.26-.26-.566-.39-.918-.39h-2.197V88.9h2.197zm-48.994 9.696v9.004h-1.797v-7.305h-4.306v7.305h-1.797v-9.004h7.9zm6.69-.098a4.146 4.146 0 013.046 1.299c.398.403.707.885.928 1.445a5.01 5.01 0 01.332 1.856 5.07 5.07 0 01-.332 1.865 4.379 4.379 0 01-.928 1.455c-.39.404-.846.719-1.367.947-.52.222-1.08.332-1.68.332-.429 0-.797-.049-1.103-.146a3.154 3.154 0 01-.771-.352 3.227 3.227 0 01-.625-.498v4.102h-1.797V98.597h1.299l.4.908c.176-.189.38-.358.615-.508a4.73 4.73 0 01.81-.332c.326-.11.717-.166 1.173-.166zm-.098 7.5c.345 0 .674-.068.986-.205a2.57 2.57 0 00.83-.606 3.083 3.083 0 00.781-2.089c0-.43-.07-.821-.214-1.172a2.856 2.856 0 00-.567-.918 2.47 2.47 0 00-.83-.596 2.344 2.344 0 00-.986-.215 2.41 2.41 0 00-.996.215 2.47 2.47 0 00-.83.596 3.07 3.07 0 00-.567.928 3.175 3.175 0 00-.205 1.162c0 .429.069.82.205 1.172.144.351.332.657.567.917.24.261.517.463.83.606.319.137.651.205.996.205zm12.607-2.9c0-.43-.071-.821-.214-1.172a3.056 3.056 0 00-.547-.918 2.3 2.3 0 00-.801-.596 2.193 2.193 0 00-.938-.215c-.319 0-.631.072-.937.215a2.3 2.3 0 00-.8.596 3.18 3.18 0 00-.558.928 3.175 3.175 0 00-.205 1.162c0 .429.069.82.206 1.172.143.351.328.657.556.917a2.272 2.272 0 001.738.811c.32 0 .632-.068.938-.205.306-.143.573-.345.8-.606.229-.26.41-.566.548-.917.143-.352.214-.743.214-1.172zm1.797 0a5.07 5.07 0 01-.332 1.865 4.257 4.257 0 01-.918 1.455c-.39.404-.846.719-1.367.947-.52.222-1.08.332-1.68.332-.599 0-1.158-.11-1.68-.332a4.367 4.367 0 01-1.376-.947 4.462 4.462 0 01-.918-1.455 5.171 5.171 0 01-.322-1.865c0-.677.107-1.296.322-1.856a4.295 4.295 0 012.295-2.402 4.145 4.145 0 011.68-.342 4.145 4.145 0 013.046 1.299c.397.403.703.885.918 1.445a5.01 5.01 0 01.332 1.856zm9.707 1.904c-.15.371-.338.719-.566 1.045a3.947 3.947 0 01-.82.859 3.76 3.76 0 01-1.114.586 4.49 4.49 0 01-1.406.205 4.24 4.24 0 01-1.68-.332 4.255 4.255 0 01-1.367-.947 4.462 4.462 0 01-.918-1.455 5.035 5.035 0 01-.332-1.865c0-.677.11-1.296.332-1.856a4.52 4.52 0 01.899-1.445 3.98 3.98 0 011.338-.957 3.982 3.982 0 011.63-.342c.573 0 1.117.114 1.631.342.515.228.96.547 1.338.957.378.403.677.885.899 1.445.221.56.332 1.179.332 1.856 0 .104-.007.208-.02.312a5.548 5.548 0 01-.039.254 4.453 4.453 0 01-.039.234h-6.406c.026.28.107.547.244.801s.306.479.508.674c.208.189.455.342.742.459.286.111.59.166.908.166.547 0 .98-.117 1.299-.352.325-.234.56-.449.703-.644h1.904zm-4.004-4.805a2.09 2.09 0 00-1.523.615c-.41.404-.67.935-.781 1.592h4.804c-.104-.651-.37-1.181-.8-1.592-.424-.41-.99-.615-1.7-.615zm11.504 7.403l-3.505-4.297v4.297H84.85v-9.004h1.797v3.906l3.105-3.906h2.1l-3.496 4.199 3.994 4.805h-2.198zm2.295-9.004h7.393v1.699h-2.793v7.305H95.24v-7.305h-2.793v-1.7z" fill="#1B1818"/><path d="M71.985 33.78a1.143 1.143 0 00-1.125 1.142V55.02l-7.186-7.187a1.142 1.142 0 00-1.614 1.616l9.135 9.135.013.011.002.002.035.033.001.001.047.041.002.002.03.022.003.002.054.038.005.003.041.025.005.003.047.026.006.003a.33.33 0 00.041.02l.007.002.046.021.007.003c.011.005.031.011.051.018l.008.002a.776.776 0 00.04.014l.008.002c.011.003.031.01.051.013l.007.001.047.01.007.001.049.007.006.001a.629.629 0 00.054.005h.003l.059.002h.001l.027.001h.029-.001c.035-.002.069-.004.102-.008l-.005.001c.009 0 .011-.002.014-.002l-.007.001.078-.013-.007.001.062-.013-.008.002a.905.905 0 00.051-.013l-.008.002.076-.023-.008.002c.022-.007.035-.013.049-.018l-.007.003a.664.664 0 00.067-.029l-.007.003c.037-.017.065-.03.093-.046l-.006.003.007-.005-.004.003c.027-.015.048-.029.069-.043l-.004.003c.019-.013.034-.022.048-.033l-.003.002a.984.984 0 00.075-.06l-.001.001.007-.007c.019-.016.037-.03.053-.047l9.134-9.134a1.142 1.142 0 00-.796-1.961l-.035.001h.002a1.14 1.14 0 00-.785.344l-7.185 7.186V34.927c0-.63-.511-1.142-1.142-1.142h-.018.001v-.004zM57.158 63.483h-.016a1.142 1.142 0 100 2.284h29.719a1.142 1.142 0 100-2.284H57.158z" fill="#000"/></svg>