<svg xmlns="http://www.w3.org/2000/svg" width="166.25" height="162.75"><path data-name="листайте дальше → листайте дальше →" d="M109.048 3.23l-4.108 8.711a3.005 3.005 0 01-1.4 1.515 2.3 2.3 0 01-1.847.026l-.2-.075-.5 1.311a1.221 1.221 0 00.175.134 2.057 2.057 0 00.21.114c.08.038.172.077.277.116a3.306 3.306 0 002.71-.115 4.86 4.86 0 002.184-2.412l3.474-7.339 4.641 1.762-4.291 11.3 1.616.614 4.826-12.711zm14.658 22.576l7.215-11.524-1.278-.8-11.315 5.264 5.553-8.871-1.465-.917-7.21 11.52 1.277.8 11.316-5.263-5.554 8.87zm16.091-1.71a4 4 0 01.361 1.273 3.911 3.911 0 01-.079 1.292 4.9 4.9 0 01-.475 1.235l1.329 1.263a7.491 7.491 0 00.668-1.866 6.178 6.178 0 00.107-1.934 5.451 5.451 0 00-.5-1.858 5.886 5.886 0 00-3.333-2.919 6.344 6.344 0 00-2.483-.339 7.328 7.328 0 00-2.534.631 7.255 7.255 0 00-3.738 3.935 7.347 7.347 0 00-.494 2.555 6.352 6.352 0 00.465 2.463 5.7 5.7 0 001.38 2.037 5.663 5.663 0 003.657 1.614 6.049 6.049 0 001.933-.2 7.491 7.491 0 001.829-.762l-1.329-1.263a4.732 4.732 0 01-1.209.538 3.8 3.8 0 01-1.294.137 4.367 4.367 0 01-1.313-.332 4.083 4.083 0 01-1.236-.825 4 4 0 01-.978-1.481 4.627 4.627 0 01-.3-1.841 5.6 5.6 0 01.427-1.95 6.189 6.189 0 012.977-3.132 5.723 5.723 0 011.932-.534 4.689 4.689 0 011.846.213 3.985 3.985 0 011.529.9 3.916 3.916 0 01.857 1.148zm12.448 12.585l-5.866-8.009-1.216.89 2.422 3.308-9.752 7.143 1.021 1.394 9.753-7.143 2.422 3.308zm-6.479 16.525l.85 1.625 9.649-10.887-.7-1.335-14.45 1.707.85 1.625 3.561-.4 2.6 4.968zm7.663-8.635l-4.208 4.758-2.1-4.015zm10.917 14.024a2.947 2.947 0 001.9.325l-.378-1.24a1.583 1.583 0 01-1.022-.173 1.376 1.376 0 01-.548-1.794 1.585 1.585 0 01.752-.715l-.378-1.239a2.89 2.89 0 00-1.391 1.328 2.9 2.9 0 001.07 3.508zm-14.167 7.595l13-3.968-.44-1.441-11.994-3.448 10.01-3.054-.5-1.654-13 3.968.44 1.442 11.994 3.448-10.01 3.054zm15.118 10.389l-1.173-9.859-1.5.178.484 4.072-12 1.428.2 1.716 12-1.428.484 4.071zM153.23 82.15l4.749.214-.287 6.36 1.5.068.287-6.36 4.317.195-.311 6.9 1.5.068.39-8.623-13.582-.614-.4 8.844 1.513.068zm-4.4 24.041l11.57 3.5 2.255-7.444-8.675-3.752a3.621 3.621 0 01-1.034-.66 5.428 5.428 0 01-.658-.733 3.551 3.551 0 01-.453-.831l.22-.727-4.126-1.25-.47 1.554 2.683.813-2.72 8.977-2.683-.813-.471 1.553 4.125 1.25zm.5-1.654l1.879-6.2a3.9 3.9 0 00.514.63 8.359 8.359 0 00.7.591 5.2 5.2 0 001.057.6l7.275 3.173-1.3 4.277zm-7.211 12.106l-.841 1.629 14.456 1.634.691-1.339-9.705-10.842-.841 1.629 2.375 2.684-2.571 4.983zm11.471 1.3l-6.312-.707 2.078-4.027zm-3.656 11.474l-7.114-6.492a3.006 3.006 0 01-1.036-1.782 2.3 2.3 0 01.52-1.773l.129-.167-1.106-.861a1.248 1.248 0 00-.179.127 2.214 2.214 0 00-.171.168 4.204 4.204 0 00-.193.23 3.309 3.309 0 00-.688 2.624 4.863 4.863 0 001.662 2.8l5.99 5.482-3.051 3.916-9.536-7.43-1.063 1.363 10.726 8.356zm-21.893 3.9a4.265 4.265 0 00-1.033 1.36 4.191 4.191 0 00-.417 1.595 4.617 4.617 0 00.2 1.625 3.822 3.822 0 00.806 1.433 3.875 3.875 0 001.33.976 4.532 4.532 0 001.589.393 4.309 4.309 0 001.634-.223 4.226 4.226 0 001.477-.86l2.255-2 3.434 3.871 1.293-1.147-9.022-10.171zm4.581 5.164a2.508 2.508 0 01-.885.511 2.571 2.571 0 01-1 .123 2.685 2.685 0 01-.991-.276 2.787 2.787 0 01-1.558-2.6 2.546 2.546 0 01.85-1.8l2.255-2 3.581 4.036zm-14.5 17.558l-5.829-10.591 4.164-2.291 5.829 10.591 1.514-.834-5.828-10.591 4.155-2.286 5.828 10.59 1.515-.833-6.556-11.911-12.853 7.073 6.555 11.912zm-12.708-8l1.373 4.55-6.095 1.839.436 1.443 6.094-1.839 1.248 4.137-6.609 1.994.445 1.443 8.263-2.493-3.927-13.017-8.476 2.558.436 1.443zm-26.529 14.71l.043-2.044-3.064-3.2 13.8.291.032-1.518-13.8-.29 3.195-3.064.043-2.044-6.057 5.808zm-20.655-2.685l3.944-8.786a3.009 3.009 0 011.37-1.541 2.292 2.292 0 011.846-.061l.2.072.473-1.32a1.262 1.262 0 00-.177-.131 2.323 2.323 0 00-.213-.109 3.429 3.429 0 00-.279-.112 3.307 3.307 0 00-2.707.166 4.862 4.862 0 00-2.139 2.453l-3.336 7.4-4.673-1.674 4.079-11.38-1.628-.584-4.587 12.8zm-15.082-22.3l-7 11.658 1.292.775 11.215-5.475-5.379 8.984 1.482.889 7-11.657-1.293-.775-11.214 5.474 5.386-8.973zm-16.06 2.01a4.007 4.007 0 01-.384-1.266 3.909 3.909 0 01.054-1.293 4.894 4.894 0 01.452-1.243l-1.353-1.238a7.492 7.492 0 00-.632 1.878 6.173 6.173 0 00-.071 1.935 5.45 5.45 0 00.537 1.849 5.886 5.886 0 003.387 2.856 6.349 6.349 0 002.489.292 7.337 7.337 0 002.522-.679 7.258 7.258 0 003.664-4 7.353 7.353 0 00.445-2.564 6.347 6.347 0 00-.511-2.454 5.708 5.708 0 00-1.418-2.011 5.671 5.671 0 00-3.686-1.545 6.094 6.094 0 00-1.929.235 7.5 7.5 0 00-1.815.8l1.353 1.238a4.688 4.688 0 011.2-.561 3.8 3.8 0 011.291-.161 4.361 4.361 0 011.319.307 4.08 4.08 0 011.252.8 4 4 0 011.005 1.462 4.621 4.621 0 01.335 1.835 5.567 5.567 0 01-.391 1.957 6.164 6.164 0 01-2.917 3.188 5.746 5.746 0 01-1.921.571 4.693 4.693 0 01-1.851-.179 3.982 3.982 0 01-1.545-.872 3.913 3.913 0 01-.879-1.132zm-12.682-12.352l6.014 7.9 1.2-.913-2.483-3.262 9.619-7.322-1.047-1.376-9.619 7.323-2.484-3.266zm6.18-16.642l-.88-1.609-9.447 11.063.723 1.322 14.417-1.972-.88-1.609-3.553.465-2.69-4.92zm-7.5 8.775l4.119-4.835 2.174 3.976zm-11.18-13.816a2.938 2.938 0 00-1.9-.289l.4 1.232a1.586 1.586 0 011.025.154 1.377 1.377 0 01.581 1.784 1.587 1.587 0 01-.738.728l.4 1.232a2.9 2.9 0 001.366-1.353 2.9 2.9 0 00-1.134-3.488zm14.022-7.86L3.006 102.09l.467 1.433 12.057 3.222-9.951 3.242.535 1.644 12.927-4.212-.467-1.433-12.057-3.222 9.951-3.241zm-15.31-10.1l1.358 9.835 1.493-.206-.563-4.064 11.975-1.653-.236-1.713L2.67 91.632l-.561-4.062zm11.96-5.8l-4.752-.126.169-6.363-1.507-.04-.169 6.363-4.32-.114.183-6.9-1.507-.04-.229 8.629 13.591.36.235-8.85-1.507-.04zm3.956-24.125L4.906 54.563l-2.118 7.484 8.743 3.591a3.647 3.647 0 011.045.641 5.41 5.41 0 01.672.722 3.553 3.553 0 01.468.822l-.207.73 4.148 1.174.442-1.562-2.7-.763 2.554-9.026 2.7.764.442-1.562-4.15-1.172zm-.471 1.663l-1.765 6.237a3.887 3.887 0 00-.526-.619 7.983 7.983 0 00-.707-.578 5.152 5.152 0 00-1.068-.582l-7.333-3.039 1.217-4.3zm6.983-12.233l.81-1.645-14.483-1.365-.667 1.352 9.905 10.659.81-1.645-2.422-2.634 2.478-5.03zm-11.493-1.091l6.324.59-2 4.065zm3.439-11.536l7.235 6.356a3.01 3.01 0 011.07 1.763 2.3 2.3 0 01-.486 1.783l-.126.168 1.122.841a1.127 1.127 0 00.177-.131 2.115 2.115 0 00.168-.171c.058-.066.121-.144.188-.234a3.305 3.305 0 00.639-2.636 4.864 4.864 0 00-1.714-2.766l-6.092-5.368 2.977-3.973 9.674 7.25 1.037-1.383-10.881-8.15zm21.816-4.306a4.289 4.289 0 001.008-1.379 4.2 4.2 0 00.386-1.6 4.61 4.61 0 00-.232-1.621 3.825 3.825 0 00-.833-1.417 3.877 3.877 0 00-1.348-.951 4.524 4.524 0 00-1.6-.363 4.286 4.286 0 00-1.629.254 4.211 4.211 0 00-1.461.887l-2.217 2.042-3.506-3.806-1.271 1.171 9.212 10zm-4.677-5.077a2.482 2.482 0 01.875-.527 2.548 2.548 0 01.994-.142 2.691 2.691 0 011 .257 2.774 2.774 0 01.869.64 2.735 2.735 0 01.563.914 2.763 2.763 0 01.174 1.014 2.55 2.55 0 01-.816 1.813l-2.217 2.042-3.656-3.969zm13.972-17.8l6.168 10.4-4.087 2.426-6.169-10.4-1.487.882 6.169 10.4-4.079 2.421-6.169-10.4-1.486.882 6.943 11.692 12.617-7.487-6.938-11.693zm13.052 7.738l-1.458-4.524 6.059-1.953-.461-1.429-6.059 1.953-1.33-4.118 6.571-2.118-.463-1.434-8.208 2.648 4.17 12.94 8.427-2.716-.463-1.434zM85.406.006v2.045l3.123 3.138-13.807-.032v1.518l13.796.031-3.138 3.123v2.045l5.947-5.92z" fill="#afafaf" fill-rule="evenodd"/></svg>