<svg xmlns="http://www.w3.org/2000/svg" width="87" height="87" fill="none"><path d="M64.313 0C51.483 0 41 10.306 41 23a2 2 0 104 0c0-10.502 8.615-19 19.313-19 6.454 0 12.048 2.909 15.53 7.563l-5.5-.594a2 2 0 10-.406 3.969l9.72 1.03a2.001 2.001 0 002.187-2.187l-1-10.25a2 2 0 00-2.219-1.812 2 2 0 00-1.781 2.218l.281 2.97C76.882 2.578 70.906 0 64.312 0zM17.156 14c-2.22.008-4.886 1.43-6.562 3.094-13.942 13.941-13.425 23.294 6.344 43.062l9.906 9.907c19.768 19.768 29.121 20.285 43.062 6.343 2.421-2.438 4.345-6.967 2.125-9.187-3.186-3.187-10.51-8.317-13.5-9.813-2.99-1.495-6.18 2.21-8.156 4.094-5.06 4.824-5.96 7.791-15.781-2.031l-7.063-7.063c-9.822-9.822-6.855-10.72-2.031-15.781 1.885-1.977 5.59-5.166 4.094-8.156-1.496-2.991-6.626-10.314-9.813-13.5-.694-.694-1.615-.972-2.625-.969zm67.625 6.969A2 2 0 0083 23c0 10.517-8.483 19-19 19-6.394 0-11.946-2.909-15.375-7.625l5.906.625a2 2 0 10.407-3.969L45.218 30a1.998 1.998 0 00-.406 0A2 2 0 0043 32.188l1.031 10.25A2.001 2.001 0 1048 42.03l-.25-2.593C51.914 43.554 57.668 46 64 46c12.679 0 23-10.321 23-23a2 2 0 00-2.219-2.031z" fill="#101010"/></svg>