<svg xmlns="http://www.w3.org/2000/svg" width="24" height="23" fill="none"><path d="M20.373 19.216c-.06.126-.14.242-.237.344a11.462 11.462 0 01-2.525 1.936c-.273.13-.555.243-.844.338l-.6-.089c-.278-.096-.564-.19-.834-.297a12.36 12.36 0 01-3.317-2.076c-1.698-1.42-3.14-3.059-4.49-4.782a30.658 30.658 0 01-3.242-4.95C3.66 8.413 3.15 7.155 2.967 5.798c-.045-.335-.052-.673-.078-1.001l.084-.583c.4-.662 1.021-1.106 1.664-1.525.476-.305.96-.585 1.45-.862.203-.115.433-.181.67-.193a1.55 1.55 0 01.692.125c.257.094.466.28.584.517.623 1.253 1.233 2.512 1.891 3.745.138.244.201.52.183.795a1.405 1.405 0 01-.283.759c-.163.247-.358.476-.541.71-.214.273-.428.547-.655.81a.213.213 0 00-.026.302c.47.703.907 1.427 1.41 2.114a28.168 28.168 0 003.079 3.66.322.322 0 00.407.085 45.56 45.56 0 011.65-.6c.393-.16.837-.17 1.243-.03.124.047.238.114.338.198 1.155.984 2.308 1.972 3.456 2.963.371.315.448.921.188 1.428z" fill="#737373"/></svg>