<svg xmlns="http://www.w3.org/2000/svg" width="62" height="62" fill="none"><g filter="url(#filter0_d)"><path d="M45.993 23.263l-1.31-1.51a4.222 4.222 0 01-1.007-2.418l-.168-1.981a4.237 4.237 0 00-3.862-3.862l-1.98-.168c-.874-.067-1.747-.403-2.418-1.007l-1.511-1.31a4.221 4.221 0 00-5.474 0l-1.51 1.31a4.23 4.23 0 01-2.418 1.007l-1.981.168a4.237 4.237 0 00-3.862 3.862l-.168 1.98c-.067.874-.403 1.747-1.007 2.418l-1.31 1.511a4.22 4.22 0 000 5.474l1.31 1.51a4.23 4.23 0 011.007 2.418l.168 1.981a4.237 4.237 0 003.862 3.862l1.98.168c.874.067 1.747.403 2.418 1.007l1.511 1.31a4.22 4.22 0 005.474 0l1.51-1.31a4.222 4.222 0 012.418-1.007l1.981-.168a4.237 4.237 0 003.862-3.862l.168-1.98c.067-.874.403-1.747 1.007-2.418l1.31-1.511c1.343-1.579 1.343-3.929 0-5.474zm-13.835 9.2v1.646a.3.3 0 01-.302.302h-1.612a.3.3 0 01-.302-.302v-1.612a3.343 3.343 0 01-3.122-2.988c-.034-.168.134-.336.302-.336h1.611c.135 0 .27.1.303.235.1.504.537.873 1.074.873h1.41c.84 0 1.612-.604 1.68-1.444a1.58 1.58 0 00-1.579-1.746h-1.04c-2.015 0-3.795-1.444-3.997-3.458a3.82 3.82 0 013.291-4.164v-1.612a.3.3 0 01.302-.302h1.612a.3.3 0 01.302.302v1.612a3.343 3.343 0 013.123 2.988c.034.168-.134.336-.302.336H33.3a.323.323 0 01-.302-.235 1.084 1.084 0 00-1.075-.873h-1.41c-.84 0-1.612.605-1.679 1.444-.1.94.638 1.78 1.578 1.78h1.21a3.795 3.795 0 013.794 4.197c-.135 1.746-1.545 3.056-3.258 3.358z" fill="#FFD600"/></g><defs><filter id="filter0_d" x="0" y="0" width="62" height="62" filterUnits="userSpaceOnUse" color-interpolation-filters="sRGB"><feFlood flood-opacity="0" result="BackgroundImageFix"/><feColorMatrix in="SourceAlpha" values="0 0 0 0 0 0 0 0 0 0 0 0 0 0 0 0 0 0 127 0"/><feOffset dy="5"/><feGaussianBlur stdDeviation="7.5"/><feColorMatrix values="0 0 0 0 1 0 0 0 0 0.839216 0 0 0 0 0 0 0 0 0.2 0"/><feBlend in2="BackgroundImageFix" result="effect1_dropShadow"/><feBlend in="SourceGraphic" in2="effect1_dropShadow" result="shape"/></filter></defs></svg>