<?xml version="1.0" encoding="UTF-8"?> <svg xmlns="http://www.w3.org/2000/svg" width="166.25" height="162.75" viewBox="0 0 166.25 162.75"> <metadata> <?xpacket begin="﻿" id="W5M0MpCehiHzreSzNTczkc9d"?> <?xpacket end="w"?> </metadata> <defs> <style> .cls-1 { fill: #afafaf; fill-rule: evenodd; } </style> </defs> <path id="листайте_дальше_листайте_дальше_" data-name="листайте дальше → листайте дальше →" class="cls-1" d="M186.142,82.324l-4.108,8.711a3.005,3.005,0,0,1-1.4,1.515,2.3,2.3,0,0,1-1.847.026l-0.2-.075-0.5,1.311a1.221,1.221,0,0,0,.175.134,2.057,2.057,0,0,0,.21.114c0.08,0.038.172,0.077,0.277,0.116a3.306,3.306,0,0,0,2.71-.115,4.86,4.86,0,0,0,2.184-2.412l3.474-7.339,4.641,1.762-4.291,11.3,1.616,0.614,4.826-12.711ZM200.8,104.9l7.215-11.524-1.278-.8-11.315,5.264,5.553-8.871-1.465-.917L192.3,99.572l1.277,0.8,11.316-5.263-5.554,8.87Zm16.091-1.71a4,4,0,0,1,.361,1.273,3.911,3.911,0,0,1-.079,1.292,4.9,4.9,0,0,1-.475,1.235l1.329,1.263a7.491,7.491,0,0,0,.668-1.866,6.178,6.178,0,0,0,.107-1.934,5.451,5.451,0,0,0-.5-1.858,5.886,5.886,0,0,0-3.333-2.919,6.344,6.344,0,0,0-2.483-.339,7.328,7.328,0,0,0-2.534.631,7.255,7.255,0,0,0-3.738,3.935,7.347,7.347,0,0,0-.494,2.555,6.352,6.352,0,0,0,.465,2.463,5.7,5.7,0,0,0,1.38,2.037,5.663,5.663,0,0,0,3.657,1.614,6.049,6.049,0,0,0,1.933-.2,7.491,7.491,0,0,0,1.829-.762l-1.329-1.263a4.732,4.732,0,0,1-1.209.538,3.8,3.8,0,0,1-1.294.137,4.367,4.367,0,0,1-1.313-.332,4.083,4.083,0,0,1-1.236-.825,4,4,0,0,1-.978-1.481,4.627,4.627,0,0,1-.3-1.841,5.6,5.6,0,0,1,.427-1.95,6.189,6.189,0,0,1,2.977-3.132,5.723,5.723,0,0,1,1.932-.534,4.689,4.689,0,0,1,1.846.213,3.985,3.985,0,0,1,1.529.9,3.916,3.916,0,0,1,.857,1.148h0Zm12.448,12.585-5.866-8.009-1.216.89,2.422,3.308-9.752,7.143,1.021,1.394,9.753-7.143,2.422,3.308ZM222.86,132.3l0.85,1.625,9.649-10.887-0.7-1.335-14.45,1.707,0.85,1.625,3.561-.4,2.6,4.968Zm7.663-8.635-4.208,4.758-2.1-4.015Zm10.917,14.024a2.947,2.947,0,0,0,1.9.325l-0.378-1.24a1.583,1.583,0,0,1-1.022-.173,1.376,1.376,0,0,1-.548-1.794,1.585,1.585,0,0,1,.752-0.715l-0.378-1.239a2.89,2.89,0,0,0-1.391,1.328,2.9,2.9,0,0,0,1.07,3.508h0Zm-14.167,7.595,13-3.968-0.44-1.441-11.994-3.448,10.01-3.054-0.5-1.654-13,3.968,0.44,1.442,11.994,3.448-10.01,3.054Zm15.118,10.389-1.173-9.859-1.5.178,0.484,4.072-12,1.428,0.2,1.716,12-1.428,0.484,4.071Zm-12.067,5.571,4.749,0.214-0.287,6.36,1.5,0.068,0.287-6.36,4.317,0.195-0.311,6.9,1.5,0.068,0.39-8.623-13.582-.614-0.4,8.844L230,168.364Zm-4.4,24.041,11.57,3.5,2.255-7.444-8.675-3.752a3.621,3.621,0,0,1-1.034-.66,5.428,5.428,0,0,1-.658-0.733,3.551,3.551,0,0,1-.453-0.831l0.22-.727-4.126-1.25-0.47,1.554,2.683,0.813-2.72,8.977-2.683-.813-0.471,1.553,4.125,1.25Zm0.5-1.654,1.879-6.2a3.9,3.9,0,0,0,.514.63,8.359,8.359,0,0,0,.7.591,5.2,5.2,0,0,0,1.057.6l7.275,3.173-1.3,4.277Zm-7.211,12.106-0.841,1.629L232.828,199l0.691-1.339-9.705-10.842-0.841,1.629,2.375,2.684-2.571,4.983Zm11.471,1.3-6.312-.707,2.078-4.027Zm-3.656,11.474-7.114-6.492a3.006,3.006,0,0,1-1.036-1.782,2.3,2.3,0,0,1,.52-1.773l0.129-.167-1.106-.861a1.248,1.248,0,0,0-.179.127,2.214,2.214,0,0,0-.171.168c-0.059.065-.124,0.142-0.193,0.23a3.309,3.309,0,0,0-.688,2.624,4.863,4.863,0,0,0,1.662,2.8l5.99,5.482-3.051,3.916-9.536-7.43-1.063,1.363,10.726,8.356Zm-21.893,3.9a4.265,4.265,0,0,0-1.033,1.36,4.191,4.191,0,0,0-.417,1.595,4.617,4.617,0,0,0,.2,1.625,3.822,3.822,0,0,0,.806,1.433,3.875,3.875,0,0,0,1.33.976,4.532,4.532,0,0,0,1.589.393,4.309,4.309,0,0,0,1.634-.223,4.226,4.226,0,0,0,1.477-.86l2.255-2,3.434,3.871,1.293-1.147-9.022-10.171Zm4.581,5.164a2.508,2.508,0,0,1-.885.511,2.571,2.571,0,0,1-1,.123,2.685,2.685,0,0,1-.991-0.276,2.787,2.787,0,0,1-1.558-2.6,2.546,2.546,0,0,1,.85-1.8l2.255-2,3.581,4.036Zm-14.5,17.558-5.829-10.591,4.164-2.291,5.829,10.591,1.514-.834-5.828-10.591,4.155-2.286,5.828,10.59,1.515-.833-6.556-11.911-12.853,7.073,6.555,11.912Zm-12.708-8,1.373,4.55-6.095,1.839,0.436,1.443,6.094-1.839,1.248,4.137-6.609,1.994L179.4,240.7l8.263-2.493-3.927-13.017-8.476,2.558,0.436,1.443Zm-26.529,14.71,0.043-2.044-3.064-3.2,13.8,0.291,0.032-1.518-13.8-.29,3.195-3.064,0.043-2.044-6.057,5.808Zm-20.655-2.685,3.944-8.786a3.009,3.009,0,0,1,1.37-1.541,2.292,2.292,0,0,1,1.846-.061l0.2,0.072,0.473-1.32a1.262,1.262,0,0,0-.177-0.131,2.323,2.323,0,0,0-.213-0.109c-0.08-.037-0.173-0.074-0.279-0.112a3.307,3.307,0,0,0-2.707.166,4.862,4.862,0,0,0-2.139,2.453l-3.336,7.4-4.673-1.674,4.079-11.38-1.628-.584-4.587,12.8Zm-15.082-22.3-7,11.658,1.292,0.775,11.215-5.475L120.37,232.8l1.482,0.889,7-11.657-1.293-.775-11.214,5.474,5.386-8.973Zm-16.06,2.01a4.007,4.007,0,0,1-.384-1.266,3.909,3.909,0,0,1,.054-1.293,4.894,4.894,0,0,1,.452-1.243l-1.353-1.238a7.492,7.492,0,0,0-.632,1.878,6.173,6.173,0,0,0-.071,1.935,5.45,5.45,0,0,0,.537,1.849,5.886,5.886,0,0,0,3.387,2.856,6.349,6.349,0,0,0,2.489.292,7.337,7.337,0,0,0,2.522-.679,7.258,7.258,0,0,0,3.664-4,7.353,7.353,0,0,0,.445-2.564,6.347,6.347,0,0,0-.511-2.454,5.708,5.708,0,0,0-1.418-2.011,5.671,5.671,0,0,0-3.686-1.545,6.094,6.094,0,0,0-1.929.235,7.5,7.5,0,0,0-1.815.8l1.353,1.238a4.688,4.688,0,0,1,1.2-.561,3.8,3.8,0,0,1,1.291-.161,4.361,4.361,0,0,1,1.319.307,4.08,4.08,0,0,1,1.252.8,4,4,0,0,1,1.005,1.462,4.621,4.621,0,0,1,.335,1.835,5.567,5.567,0,0,1-.391,1.957,6.164,6.164,0,0,1-2.917,3.188,5.746,5.746,0,0,1-1.921.571,4.693,4.693,0,0,1-1.851-.179,3.982,3.982,0,0,1-1.545-.872,3.913,3.913,0,0,1-.879-1.132h0ZM91.5,206.516l6.014,7.9,1.2-.913-2.483-3.262,9.619-7.322-1.047-1.376-9.619,7.323L92.7,205.6Zm6.18-16.642-0.88-1.609-9.447,11.063,0.723,1.322,14.417-1.972-0.88-1.609-3.553.465-2.69-4.92Zm-7.5,8.775,4.119-4.835,2.174,3.976ZM79,184.833a2.938,2.938,0,0,0-1.9-.289l0.4,1.232a1.586,1.586,0,0,1,1.025.154,1.377,1.377,0,0,1,.581,1.784,1.587,1.587,0,0,1-.738.728l0.4,1.232a2.9,2.9,0,0,0,1.366-1.353A2.9,2.9,0,0,0,79,184.833h0Zm14.022-7.86L80.1,181.184l0.467,1.433,12.057,3.222-9.951,3.242,0.535,1.644,12.927-4.212-0.467-1.433-12.057-3.222,9.951-3.241Zm-15.31-10.1,1.358,9.835,1.493-.206L80,172.438l11.975-1.653-0.236-1.713-11.975,1.654-0.561-4.062Zm11.96-5.8-4.752-.126,0.169-6.363-1.507-.04-0.169,6.363-4.32-.114,0.183-6.9-1.507-.04-0.229,8.629,13.591,0.36,0.235-8.85-1.507-.04Zm3.956-24.125L82,133.657l-2.118,7.484,8.743,3.591a3.647,3.647,0,0,1,1.045.641,5.41,5.41,0,0,1,.672.722,3.553,3.553,0,0,1,.468.822l-0.207.73,4.148,1.174,0.442-1.562-2.7-.763,2.554-9.026,2.7,0.764,0.442-1.562L94.039,135.5Zm-0.471,1.663-1.765,6.237a3.887,3.887,0,0,0-.526-0.619,7.983,7.983,0,0,0-.707-0.578,5.152,5.152,0,0,0-1.068-.582l-7.333-3.039,1.217-4.3Zm6.983-12.233,0.81-1.645-14.483-1.365L85.8,124.72l9.905,10.659,0.81-1.645L94.093,131.1l2.478-5.03Zm-11.493-1.091,6.324,0.59-2,4.065Zm3.439-11.536,7.235,6.356a3.01,3.01,0,0,1,1.07,1.763,2.3,2.3,0,0,1-.486,1.783l-0.126.168,1.122,0.841a1.127,1.127,0,0,0,.177-0.131,2.115,2.115,0,0,0,.168-0.171c0.058-.066.121-0.144,0.188-0.234a3.305,3.305,0,0,0,.639-2.636,4.864,4.864,0,0,0-1.714-2.766l-6.092-5.368,2.977-3.973,9.674,7.25,1.037-1.383L97.074,107.1Zm21.816-4.306a4.289,4.289,0,0,0,1.008-1.379,4.2,4.2,0,0,0,.386-1.6,4.61,4.61,0,0,0-.232-1.621,3.825,3.825,0,0,0-.833-1.417,3.877,3.877,0,0,0-1.348-.951,4.524,4.524,0,0,0-1.6-.363,4.286,4.286,0,0,0-1.629.254,4.211,4.211,0,0,0-1.461.887l-2.217,2.042-3.506-3.806-1.271,1.171,9.212,10Zm-4.677-5.077a2.482,2.482,0,0,1,.875-0.527,2.548,2.548,0,0,1,.994-0.142,2.691,2.691,0,0,1,1,.257,2.774,2.774,0,0,1,.869.64,2.735,2.735,0,0,1,.563.914,2.763,2.763,0,0,1,.174,1.014,2.55,2.55,0,0,1-.816,1.813l-2.217,2.042-3.656-3.969Zm13.972-17.8,6.168,10.4-4.087,2.426-6.169-10.4-1.487.882,6.169,10.4-4.079,2.421-6.169-10.4-1.486.882L119,104.871l12.617-7.487-6.938-11.693Zm13.052,7.738-1.458-4.524,6.059-1.953L140.389,86.4l-6.059,1.953L133,84.235l6.571-2.118-0.463-1.434L130.9,83.331l4.17,12.94,8.427-2.716-0.463-1.434ZM162.5,79.1l0,2.045,3.123,3.138-13.807-.032,0,1.518L165.612,85.8l-3.138,3.123,0,2.045,5.947-5.92Z" transform="translate(-77.094 -79.094)"></path> </svg> 