<svg xmlns="http://www.w3.org/2000/svg" width="48" height="54" fill="none"><g filter="url(#filter0_d)" fill="#FFD600"><path d="M27.5 8.579h-7a1.73 1.73 0 01-1.237-.524 1.81 1.81 0 01-.513-1.266c0-.474.184-.93.513-1.265A1.73 1.73 0 0120.5 5h7c.464 0 .91.189 1.237.524.329.336.513.79.513 1.265 0 .475-.184.93-.513 1.266a1.73 1.73 0 01-1.237.524zM24 10.368c-2.769 0-5.476.84-7.778 2.413a14.251 14.251 0 00-5.156 6.425 14.616 14.616 0 00-.797 8.271 14.419 14.419 0 003.832 7.33 13.907 13.907 0 007.168 3.918c2.716.552 5.53.269 8.089-.815a14.074 14.074 0 006.283-5.272A14.547 14.547 0 0038 24.684c0-3.797-1.475-7.438-4.1-10.123-2.626-2.684-6.187-4.193-9.9-4.193zm1.75 14.316c0 .475-.184.93-.513 1.266a1.73 1.73 0 01-1.237.524 1.73 1.73 0 01-1.237-.524 1.81 1.81 0 01-.513-1.266v-5.368c0-.475.184-.93.513-1.266A1.73 1.73 0 0124 17.526c.464 0 .91.189 1.237.524.329.336.513.791.513 1.266v5.368z"/></g><defs><filter id="filter0_d" x="0" y="0" width="48" height="54" filterUnits="userSpaceOnUse" color-interpolation-filters="sRGB"><feFlood flood-opacity="0" result="BackgroundImageFix"/><feColorMatrix in="SourceAlpha" values="0 0 0 0 0 0 0 0 0 0 0 0 0 0 0 0 0 0 127 0"/><feOffset dy="5"/><feGaussianBlur stdDeviation="5"/><feColorMatrix values="0 0 0 0 1 0 0 0 0 0.839216 0 0 0 0 0 0 0 0 0.15 0"/><feBlend in2="BackgroundImageFix" result="effect1_dropShadow"/><feBlend in="SourceGraphic" in2="effect1_dropShadow" result="shape"/></filter></defs></svg>