<svg class="t460__svg" xmlns="http://www.w3.org/2000/svg" width="25" height="25" viewBox="0 0 48 48"><path d="M41.2 22.2c.6-.8 1.1-1.5 1.5-2 2.7-3.5 3.8-5.8 3.5-6.8l-.2-.2c-.1-.1-.3-.3-.7-.4-.4-.1-.9-.1-1.5-.1h-7.2c-.2 0-.3 0-.3.1 0 0-.1 0-.1.1v.1c-.1 0-.2.1-.3.2-.1.1-.2.2-.2.4-.7 1.9-1.5 3.6-2.5 5.2-.6 1-1.1 1.8-1.6 2.5s-.9 1.2-1.2 1.5c-.3.3-.6.6-.9.8-.2.3-.4.4-.5.4-.1 0-.3-.1-.4-.1-.2-.1-.4-.3-.5-.6-.1-.2-.2-.5-.3-.9 0-.4-.1-.7-.1-.9v-4c0-.7 0-1.2.1-1.6v-1.3c0-.4 0-.8-.1-1.1-.1-.3-.1-.5-.2-.7-.1-.2-.3-.4-.5-.6-.2-.1-.5-.2-.8-.3-.8-.2-1.9-.3-3.1-.3-2.9 0-4.7.2-5.5.6-.3.2-.6.4-.9.7-.3.3-.3.5-.1.6.9.1 1.6.5 2 1l.1.3c.1.2.2.6.3 1.1.1.5.2 1.1.2 1.7.1 1.1.1 2.1 0 2.9-.1.8-.1 1.4-.2 1.9-.1.4-.2.8-.3 1.1-.1.3-.2.4-.3.5 0 .1-.1.1-.1.1-.1-.1-.4-.1-.6-.1-.2 0-.5-.1-.8-.3-.3-.2-.6-.5-1-.9-.3-.4-.7-.9-1.1-1.6-.4-.7-.8-1.5-1.3-2.4l-.4-.7c-.2-.4-.5-1.1-.9-1.9-.4-.8-.8-1.6-1.1-2.4-.1-.3-.3-.6-.6-.7l-.1-.1c-.1-.1-.2-.1-.4-.2s-.3-.1-.5-.2H3.2c-.6 0-1.1.1-1.3.4l-.1.1c0 .1-.1.2-.1.4s0 .4.1.6c.9 2.2 1.9 4.3 3 6.3s2 3.6 2.8 4.9c.8 1.2 1.6 2.4 2.4 3.5.8 1.1 1.4 1.8 1.7 2.1.3.3.5.5.6.7l.6.6c.4.4.9.8 1.6 1.3.7.5 1.5 1 2.4 1.5.9.5 1.9.9 3 1.2 1.2.3 2.3.4 3.4.4H26c.5 0 .9-.2 1.2-.5l.1-.1c.1-.1.1-.2.2-.4s.1-.4.1-.6c0-.7 0-1.3.1-1.8s.2-.9.4-1.2c.1-.3.3-.5.5-.7.2-.2.3-.3.4-.3.1 0 .1-.1.2-.1.4-.1.8 0 1.3.4s1 .8 1.4 1.3c.4.5 1 1.1 1.6 1.8.6.7 1.2 1.2 1.6 1.5l.5.3c.3.2.7.4 1.2.5.5.2.9.2 1.3.1l5.9-.1c.6 0 1-.1 1.4-.3.3-.2.5-.4.6-.6.1-.2.1-.5 0-.8-.1-.3-.1-.5-.2-.6-.1-.1-.1-.2-.2-.3-.8-1.4-2.2-3.1-4.4-5.1-1-.9-1.6-1.6-1.9-1.9-.5-.6-.6-1.2-.3-1.9.3-.5 1-1.5 2.2-3z" fill="#101010"/></svg>