<?xml version="1.0" encoding="UTF-8"?> <svg xmlns="http://www.w3.org/2000/svg" width="136" height="137" viewBox="0 0 136 137" fill="none"> <circle cx="68" cy="68.4668" r="68" fill="#FFD600"></circle> <path d="M39.5869 81.3984C39.5869 82.0078 39.6924 82.5703 39.9033 83.0859C40.1143 83.6016 40.3896 84.0498 40.7295 84.4307C41.0752 84.8057 41.4678 85.0986 41.9072 85.3096C42.3525 85.5205 42.8096 85.626 43.2783 85.626C43.7119 85.626 44.1016 85.5645 44.4473 85.4414C44.7988 85.3125 45.1064 85.1367 45.3701 84.9141C45.6338 84.6914 45.8506 84.4336 46.0205 84.1406C46.1963 83.8477 46.3311 83.5342 46.4248 83.2002H48.2266C48.0918 83.7393 47.8809 84.249 47.5938 84.7295C47.3066 85.21 46.9492 85.6318 46.5215 85.9951C46.0996 86.3525 45.6162 86.6367 45.0713 86.8477C44.5264 87.0527 43.9287 87.1553 43.2783 87.1553C42.5576 87.1553 41.8691 87.0088 41.2129 86.7158C40.5625 86.4229 39.9912 86.0156 39.499 85.4941C39.0068 84.9727 38.6143 84.3633 38.3213 83.666C38.0283 82.9688 37.8818 82.2129 37.8818 81.3984C37.8818 80.5957 38.0283 79.8428 38.3213 79.1396C38.6143 78.4365 39.0068 77.8242 39.499 77.3027C39.9912 76.7812 40.5625 76.374 41.2129 76.0811C41.8691 75.7881 42.5576 75.6416 43.2783 75.6416C43.8994 75.6416 44.4795 75.7471 45.0186 75.958C45.5635 76.1631 46.041 76.4473 46.4512 76.8105C46.8672 77.168 47.2188 77.5869 47.5059 78.0674C47.7988 78.5479 48.0098 79.0576 48.1387 79.5967H46.3369C46.2432 79.2627 46.1084 78.9492 45.9326 78.6562C45.7568 78.3574 45.54 78.0996 45.2822 77.8828C45.0244 77.6602 44.7285 77.4873 44.3945 77.3643C44.0605 77.2354 43.6885 77.1709 43.2783 77.1709C42.8096 77.1709 42.3525 77.2764 41.9072 77.4873C41.4678 77.6924 41.0752 77.9854 40.7295 78.3662C40.3896 78.7412 40.1143 79.1895 39.9033 79.7109C39.6924 80.2266 39.5869 80.7891 39.5869 81.3984ZM54.7041 87.0674L51.5488 83.2002V87.0674H49.9316V78.9639H51.5488V82.4795L54.3438 78.9639H56.2334L53.0869 82.7432L56.6816 87.0674H54.7041ZM60.7246 78.876C61.1934 78.876 61.6211 78.9521 62.0078 79.1045C62.4004 79.251 62.7344 79.4531 63.0098 79.7109C63.2852 79.9688 63.499 80.2734 63.6514 80.625C63.8037 80.9707 63.8799 81.3486 63.8799 81.7588V87.0674H62.7109L62.3506 86.2588C62.1924 86.4287 62.0049 86.5781 61.7881 86.707C61.5947 86.8242 61.3516 86.9297 61.0586 87.0234C60.7656 87.1113 60.4141 87.1553 60.0039 87.1553C59.1016 87.1553 58.4102 86.9326 57.9297 86.4873C57.4551 86.0361 57.2178 85.4502 57.2178 84.7295C57.2178 84.3193 57.2939 83.9502 57.4463 83.6221C57.6045 83.2881 57.8711 83.0068 58.2461 82.7783C58.627 82.5439 59.1396 82.3623 59.7842 82.2334C60.4346 82.0986 61.2578 82.0312 62.2539 82.0312V81.7588C62.2539 81.3486 62.125 81.0205 61.8672 80.7744C61.6094 80.5283 61.2285 80.4053 60.7246 80.4053C60.1855 80.4053 59.793 80.502 59.5469 80.6953C59.3008 80.8887 59.1543 81.123 59.1074 81.3984H57.4902C57.5371 80.6777 57.8389 80.0771 58.3955 79.5967C58.9521 79.1162 59.7285 78.876 60.7246 78.876ZM60.1006 85.7139C60.7861 85.7139 61.3164 85.5381 61.6914 85.1865C62.0664 84.835 62.2539 84.4072 62.2539 83.9033V83.4639C61.5332 83.4639 60.9502 83.499 60.5049 83.5693C60.0654 83.6338 59.7197 83.7246 59.4678 83.8418C59.2158 83.9531 59.0459 84.0938 58.958 84.2637C58.876 84.4277 58.835 84.6123 58.835 84.8174C58.835 85.0459 58.9434 85.2539 59.1602 85.4414C59.377 85.623 59.6904 85.7139 60.1006 85.7139ZM72.335 78.9639V87.0674H70.7178V84.1846C70.5127 84.29 70.2959 84.3809 70.0674 84.457C69.8623 84.5273 69.6221 84.5918 69.3467 84.6504C69.0713 84.7031 68.7783 84.7295 68.4678 84.7295C68.0342 84.7295 67.6416 84.6621 67.29 84.5273C66.9385 84.3867 66.6367 84.1846 66.3848 83.9209C66.1328 83.6572 65.9365 83.3467 65.7959 82.9893C65.6553 82.626 65.585 82.2158 65.585 81.7588V78.9639H67.2109V81.7588C67.2109 82.2158 67.3545 82.585 67.6416 82.8662C67.9287 83.1475 68.3242 83.2881 68.8281 83.2881C69.1035 83.2881 69.3555 83.2617 69.584 83.209C69.8125 83.1504 70.0117 83.0859 70.1816 83.0156C70.3867 82.9453 70.5654 82.8545 70.7178 82.7432V78.9639H72.335ZM77.6523 78.876C78.1211 78.876 78.5488 78.9521 78.9355 79.1045C79.3281 79.251 79.6621 79.4531 79.9375 79.7109C80.2129 79.9688 80.4268 80.2734 80.5791 80.625C80.7314 80.9707 80.8076 81.3486 80.8076 81.7588V87.0674H79.6387L79.2783 86.2588C79.1201 86.4287 78.9326 86.5781 78.7158 86.707C78.5225 86.8242 78.2793 86.9297 77.9863 87.0234C77.6934 87.1113 77.3418 87.1553 76.9316 87.1553C76.0293 87.1553 75.3379 86.9326 74.8574 86.4873C74.3828 86.0361 74.1455 85.4502 74.1455 84.7295C74.1455 84.3193 74.2217 83.9502 74.374 83.6221C74.5322 83.2881 74.7988 83.0068 75.1738 82.7783C75.5547 82.5439 76.0674 82.3623 76.7119 82.2334C77.3623 82.0986 78.1855 82.0312 79.1816 82.0312V81.7588C79.1816 81.3486 79.0527 81.0205 78.7949 80.7744C78.5371 80.5283 78.1562 80.4053 77.6523 80.4053C77.1133 80.4053 76.7207 80.502 76.4746 80.6953C76.2285 80.8887 76.082 81.123 76.0352 81.3984H74.418C74.4648 80.6777 74.7666 80.0771 75.3232 79.5967C75.8799 79.1162 76.6562 78.876 77.6523 78.876ZM77.0283 85.7139C77.7139 85.7139 78.2441 85.5381 78.6191 85.1865C78.9941 84.835 79.1816 84.4072 79.1816 83.9033V83.4639C78.4609 83.4639 77.8779 83.499 77.4326 83.5693C76.9932 83.6338 76.6475 83.7246 76.3955 83.8418C76.1436 83.9531 75.9736 84.0938 75.8857 84.2637C75.8037 84.4277 75.7627 84.6123 75.7627 84.8174C75.7627 85.0459 75.8711 85.2539 76.0879 85.4414C76.3047 85.623 76.6182 85.7139 77.0283 85.7139ZM81.8887 78.9639H88.542V80.4932H86.0283V87.0674H84.4023V80.4932H81.8887V78.9639ZM93.499 81.6709C93.9092 81.6709 94.2842 81.7412 94.624 81.8818C94.9697 82.0166 95.2656 82.2041 95.5117 82.4443C95.7578 82.6846 95.9482 82.9688 96.083 83.2969C96.2236 83.625 96.2939 83.9824 96.2939 84.3691C96.2939 84.7559 96.2236 85.1133 96.083 85.4414C95.9482 85.7695 95.7578 86.0537 95.5117 86.2939C95.2656 86.5342 94.9697 86.7246 94.624 86.8652C94.2842 87 93.9092 87.0674 93.499 87.0674H89.9043V78.9639H91.5215V81.6709H93.499ZM93.499 85.5381C93.8096 85.5381 94.082 85.4209 94.3164 85.1865C94.5566 84.9521 94.6768 84.6797 94.6768 84.3691C94.6768 84.0586 94.5596 83.7861 94.3252 83.5518C94.0908 83.3174 93.8154 83.2002 93.499 83.2002H91.5215V85.5381H93.499ZM49.4043 94.9639V103.067H47.7871V96.4932H43.9111V103.067H42.2939V94.9639H49.4043ZM55.4248 94.876C55.9639 94.876 56.4678 94.9785 56.9365 95.1836C57.4053 95.3887 57.8154 95.6758 58.167 96.0449C58.5244 96.4082 58.8027 96.8418 59.002 97.3457C59.2012 97.8496 59.3008 98.4062 59.3008 99.0156C59.3008 99.625 59.2012 100.185 59.002 100.694C58.8027 101.198 58.5244 101.635 58.167 102.004C57.8154 102.367 57.4053 102.651 56.9365 102.856C56.4678 103.056 55.9639 103.155 55.4248 103.155C55.0381 103.155 54.707 103.111 54.4316 103.023C54.1562 102.936 53.9248 102.83 53.7373 102.707C53.5205 102.572 53.333 102.423 53.1748 102.259V105.95H51.5576V94.9639H52.7266L53.0869 95.7812C53.2451 95.6113 53.4297 95.459 53.6406 95.3242C53.834 95.2188 54.0771 95.1191 54.3701 95.0254C54.6631 94.9258 55.0146 94.876 55.4248 94.876ZM55.3369 101.626C55.6475 101.626 55.9434 101.564 56.2246 101.441C56.5059 101.312 56.7549 101.131 56.9717 100.896C57.1885 100.662 57.3584 100.387 57.4814 100.07C57.6104 99.7539 57.6748 99.4023 57.6748 99.0156C57.6748 98.6289 57.6104 98.2773 57.4814 97.9609C57.3584 97.6445 57.1885 97.3691 56.9717 97.1348C56.7549 96.9004 56.5059 96.7217 56.2246 96.5986C55.9434 96.4697 55.6475 96.4053 55.3369 96.4053C55.0264 96.4053 54.7275 96.4697 54.4404 96.5986C54.1592 96.7217 53.9102 96.9004 53.6934 97.1348C53.4824 97.3691 53.3125 97.6475 53.1836 97.9697C53.0605 98.2861 52.999 98.6348 52.999 99.0156C52.999 99.4023 53.0605 99.7539 53.1836 100.07C53.3125 100.387 53.4824 100.662 53.6934 100.896C53.9102 101.131 54.1592 101.312 54.4404 101.441C54.7275 101.564 55.0264 101.626 55.3369 101.626ZM66.6836 99.0156C66.6836 98.6289 66.6191 98.2773 66.4902 97.9609C66.3672 97.6445 66.2031 97.3691 65.998 97.1348C65.793 96.9004 65.5527 96.7217 65.2773 96.5986C65.002 96.4697 64.7207 96.4053 64.4336 96.4053C64.1465 96.4053 63.8652 96.4697 63.5898 96.5986C63.3145 96.7217 63.0742 96.9004 62.8691 97.1348C62.6641 97.3691 62.4971 97.6475 62.3682 97.9697C62.2451 98.2861 62.1836 98.6348 62.1836 99.0156C62.1836 99.4023 62.2451 99.7539 62.3682 100.07C62.4971 100.387 62.6641 100.662 62.8691 100.896C63.0742 101.131 63.3145 101.312 63.5898 101.441C63.8652 101.564 64.1465 101.626 64.4336 101.626C64.7207 101.626 65.002 101.564 65.2773 101.441C65.5527 101.312 65.793 101.131 65.998 100.896C66.2031 100.662 66.3672 100.387 66.4902 100.07C66.6191 99.7539 66.6836 99.4023 66.6836 99.0156ZM68.3008 99.0156C68.3008 99.625 68.2012 100.185 68.002 100.694C67.8086 101.198 67.5332 101.635 67.1758 102.004C66.8242 102.367 66.4141 102.651 65.9453 102.856C65.4766 103.056 64.9727 103.155 64.4336 103.155C63.8945 103.155 63.3906 103.056 62.9219 102.856C62.4531 102.651 62.04 102.367 61.6826 102.004C61.3311 101.635 61.0557 101.198 60.8564 100.694C60.6631 100.19 60.5664 99.6309 60.5664 99.0156C60.5664 98.4062 60.6631 97.8496 60.8564 97.3457C61.0557 96.8418 61.3311 96.4082 61.6826 96.0449C62.04 95.6758 62.4531 95.3887 62.9219 95.1836C63.3906 94.9785 63.8945 94.876 64.4336 94.876C64.9727 94.876 65.4766 94.9785 65.9453 95.1836C66.4141 95.3887 66.8242 95.6758 67.1758 96.0449C67.5332 96.4082 67.8086 96.8418 68.002 97.3457C68.2012 97.8496 68.3008 98.4062 68.3008 99.0156ZM77.0371 100.729C76.9023 101.063 76.7324 101.377 76.5273 101.67C76.3223 101.963 76.0762 102.221 75.7891 102.443C75.502 102.666 75.168 102.842 74.7871 102.971C74.4121 103.094 73.9902 103.155 73.5215 103.155C72.9824 103.155 72.4785 103.056 72.0098 102.856C71.541 102.651 71.1309 102.367 70.7793 102.004C70.4277 101.635 70.1523 101.198 69.9531 100.694C69.7539 100.19 69.6543 99.6309 69.6543 99.0156C69.6543 98.4062 69.7539 97.8496 69.9531 97.3457C70.1523 96.8418 70.4219 96.4082 70.7617 96.0449C71.1016 95.6758 71.5029 95.3887 71.9658 95.1836C72.4287 94.9785 72.918 94.876 73.4336 94.876C73.9492 94.876 74.4385 94.9785 74.9014 95.1836C75.3643 95.3887 75.7656 95.6758 76.1055 96.0449C76.4453 96.4082 76.7148 96.8418 76.9141 97.3457C77.1133 97.8496 77.2129 98.4062 77.2129 99.0156C77.2129 99.1094 77.207 99.2031 77.1953 99.2969C77.1836 99.3848 77.1719 99.4609 77.1602 99.5254C77.1484 99.6074 77.1367 99.6777 77.125 99.7363H71.3594C71.3828 99.9883 71.4561 100.229 71.5791 100.457C71.7021 100.686 71.8545 100.888 72.0361 101.063C72.2236 101.233 72.4463 101.371 72.7041 101.477C72.9619 101.576 73.2344 101.626 73.5215 101.626C74.0137 101.626 74.4033 101.521 74.6904 101.31C74.9834 101.099 75.1943 100.905 75.3232 100.729H77.0371ZM73.4336 96.4053C72.8945 96.4053 72.4375 96.5898 72.0625 96.959C71.6934 97.3223 71.459 97.7998 71.3594 98.3916H75.6836C75.5898 97.8057 75.3496 97.3281 74.9629 96.959C74.582 96.5898 74.0723 96.4053 73.4336 96.4053ZM83.7871 103.067L80.6318 99.2002V103.067H79.0146V94.9639H80.6318V98.4795L83.4268 94.9639H85.3164L82.1699 98.7432L85.7646 103.067H83.7871ZM85.8525 94.9639H92.5059V96.4932H89.9922V103.067H88.3662V96.4932H85.8525V94.9639Z" fill="#1B1818"></path> <path d="M67.9845 36.4668C67.4005 36.4762 66.9299 36.9517 66.9299 37.5379C66.9299 37.5435 66.9299 37.5482 66.9299 37.5538V37.5529V56.3855L60.1937 49.6459C59.9997 49.4518 59.7325 49.3326 59.4372 49.3326C58.8457 49.3326 58.3667 49.8128 58.3667 50.4037C58.3667 50.7001 58.4867 50.9674 58.6807 51.1615L67.244 59.7291C67.2468 59.7319 67.2515 59.7356 67.2562 59.7394L67.258 59.7413C67.2684 59.7516 67.2796 59.7619 67.2908 59.7722L67.2918 59.7731C67.3058 59.7863 67.3208 59.7985 67.3358 59.8116L67.3377 59.8135C67.3452 59.8191 67.3555 59.8266 67.3658 59.8341L67.3687 59.836C67.3827 59.8463 67.4005 59.8594 67.4193 59.8716L67.424 59.8744C67.4333 59.881 67.4474 59.8894 67.4624 59.8979L67.4671 59.9007C67.4783 59.9073 67.4943 59.9166 67.5111 59.9251L67.5168 59.9279C67.5252 59.9326 67.5402 59.9401 67.5552 59.9457L67.5618 59.9485C67.5711 59.9532 67.588 59.9607 67.6049 59.9682L67.6114 59.971C67.6218 59.9757 67.6405 59.9814 67.6593 59.9879L67.6667 59.9898C67.6742 59.9926 67.6892 59.9982 67.7042 60.0029L67.7117 60.0048C67.7221 60.0076 67.7408 60.0132 67.7596 60.017L67.7661 60.0179C67.7755 60.0207 67.7933 60.0245 67.8102 60.0273L67.8167 60.0282C67.827 60.0301 67.8449 60.0329 67.8627 60.0348L67.8683 60.0357C67.8814 60.0376 67.9002 60.0395 67.9189 60.0404H67.9217C67.9386 60.0414 67.9573 60.0423 67.977 60.0423H67.978C67.9855 60.0423 67.9948 60.0433 68.0033 60.0433C68.0117 60.0433 68.0211 60.0432 68.0305 60.0423H68.0295C68.0623 60.0414 68.0942 60.0395 68.1251 60.0357L68.1205 60.0367C68.1289 60.0357 68.1308 60.0348 68.1336 60.0348L68.127 60.0357C68.1551 60.032 68.1776 60.0282 68.2001 60.0236L68.1936 60.0245C68.2179 60.0198 68.2348 60.0161 68.2517 60.0123L68.2442 60.0142C68.2648 60.0095 68.2789 60.0057 68.292 60.002L68.2845 60.0039C68.3136 59.9954 68.3351 59.9889 68.3557 59.9823L68.3483 59.9842C68.3689 59.9776 68.3811 59.972 68.3942 59.9673L68.3876 59.9701C68.4139 59.9598 68.4326 59.9523 68.4504 59.9429L68.4439 59.9457C68.4785 59.9298 68.5048 59.9166 68.531 59.9026L68.5254 59.9054C68.5301 59.9026 68.531 59.9016 68.532 59.9007L68.5282 59.9035C68.5535 59.8894 68.5732 59.8763 68.5929 59.8632L68.5892 59.866C68.607 59.8538 68.621 59.8454 68.6342 59.835L68.6313 59.8369C68.6576 59.8172 68.6801 59.7994 68.7017 59.7806L68.7007 59.7816C68.7026 59.7797 68.7054 59.7769 68.7073 59.775C68.7251 59.76 68.742 59.7459 68.757 59.7309L77.3193 51.1643C77.5199 50.9693 77.6436 50.6973 77.6436 50.3962C77.6436 49.8044 77.1646 49.3251 76.5731 49.3251C76.5619 49.3251 76.5515 49.3251 76.5403 49.3261H76.5422C76.2534 49.3345 75.9938 49.4564 75.8063 49.6487L69.071 56.3883V37.5557C69.071 37.551 69.071 37.5463 69.071 37.5416C69.071 36.9498 68.592 36.4705 68.0005 36.4705C67.9948 36.4705 67.9892 36.4705 67.9836 36.4705H67.9845V36.4668ZM54.0855 64.3247C54.0808 64.3247 54.0761 64.3247 54.0705 64.3247C53.479 64.3247 53 64.8039 53 65.3957C53 65.9875 53.48 66.4668 54.0705 66.4668C54.0761 66.4668 54.0808 66.4668 54.0865 66.4668H81.9145C81.9192 66.4668 81.9239 66.4668 81.9295 66.4668C82.521 66.4668 83 65.9875 83 65.3957C83 64.8039 82.521 64.3247 81.9295 64.3247C81.9239 64.3247 81.9192 64.3247 81.9135 64.3247H54.0855Z" fill="black"></path> </svg> 